<svg width="42" height="42" viewBox="0 0 42 42" fill="none" xmlns="http://www.w3.org/2000/svg">
<path d="M41 21C41 32.0457 32.0457 41 21 41C9.9543 41 1 32.0457 1 21C1 9.9543 9.9543 1 21 1C32.0457 1 41 9.9543 41 21Z" fill="#29B029"/>
<path d="M16.3789 18.1422C16.6617 18.145 16.8994 18.2504 17.092 18.4583C17.2842 18.6667 17.3789 18.9123 17.3761 19.1952L17.3363 23.1901L25.2986 15.3847C25.5009 15.1864 25.7379 15.0885 26.0094 15.0912C26.2799 15.0939 26.5144 15.1965 26.7127 15.3988C26.9111 15.6011 27.0091 15.8378 27.0069 16.1089C27.0038 16.3799 26.901 16.6146 26.6987 16.8129L18.7364 24.6183L22.7667 24.6584C23.0495 24.6613 23.2873 24.761 23.4801 24.9576C23.6723 25.1537 23.7671 25.3932 23.7643 25.676C23.7614 25.9589 23.6617 26.1967 23.4651 26.3894C23.269 26.5817 23.0295 26.6764 22.7467 26.6736L16.2769 26.6092C16.1355 26.6078 16.009 26.5802 15.8973 26.5263C15.7861 26.4719 15.6839 26.3971 15.5905 26.3019C15.4972 26.2067 15.4245 26.1029 15.3723 25.9907C15.3206 25.878 15.2955 25.7509 15.2969 25.6095L15.3616 19.1044C15.3642 18.8452 15.4635 18.6194 15.6597 18.4271C15.8563 18.2344 16.096 18.1394 16.3789 18.1422Z" fill="white"/>
<path d="M41 21C41 32.0457 32.0457 41 21 41C9.9543 41 1 32.0457 1 21C1 9.9543 9.9543 1 21 1C32.0457 1 41 9.9543 41 21ZM3 21C3 30.9411 11.0589 39 21 39C30.9411 39 39 30.9411 39 21C39 11.0589 30.9411 3 21 3C11.0589 3 3 11.0589 3 21Z" fill="white" fill-opacity="0.2"/>
<path d="M21 41.25C32.1838 41.25 41.25 32.1838 41.25 21C41.25 9.81623 32.1838 0.75 21 0.75C9.81623 0.75 0.75 9.81623 0.75 21C0.75 32.1838 9.81623 41.25 21 41.25Z" stroke="#29B029" stroke-width="0.5"/>
</svg>
