<svg width="50" height="50" viewBox="0 0 50 50" fill="none" xmlns="http://www.w3.org/2000/svg">
<path d="M0 25C0 20.3534 0 18.0302 0.384294 16.0982C1.96243 8.16438 8.16438 1.96243 16.0982 0.384294C18.0302 0 20.3534 0 25 0C29.6466 0 31.9698 0 33.9018 0.384294C41.8356 1.96243 48.0376 8.16438 49.6157 16.0982C50 18.0302 50 20.3534 50 25C50 29.6466 50 31.9698 49.6157 33.9018C48.0376 41.8356 41.8356 48.0376 33.9018 49.6157C31.9698 50 29.6466 50 25 50C20.3534 50 18.0302 50 16.0982 49.6157C8.16438 48.0376 1.96243 41.8356 0.384294 33.9018C0 31.9698 0 29.6466 0 25Z" fill="#455A64"/>
<path d="M10 25C10 22.2121 10 20.8181 10.2306 19.6589C11.1775 14.8986 14.8986 11.1775 19.6589 10.2306C20.8181 10 22.2121 10 25 10C27.7879 10 29.1819 10 30.3411 10.2306C35.1014 11.1775 38.8225 14.8986 39.7694 19.6589C40 20.8181 40 22.2121 40 25C40 27.7879 40 29.1819 39.7694 30.3411C38.8225 35.1014 35.1014 38.8225 30.3411 39.7694C29.1819 40 27.7879 40 25 40C22.2121 40 20.8181 40 19.6589 39.7694C14.8986 38.8225 11.1775 35.1014 10.2306 30.3411C10 29.1819 10 27.7879 10 25Z" fill="white"/>
<path d="M22.9975 24.625H24.625C25.5201 24.625 26.3786 24.9806 27.0115 25.6135C27.6444 26.2464 28 27.1049 28 28H22.7492L22.75 28.75H28.75V28C28.7476 27.202 28.5171 26.4213 28.0855 25.75H30.25C30.9589 25.7498 31.6534 25.9506 32.2529 26.329C32.8524 26.7075 33.3323 27.2481 33.637 27.8883C31.8633 30.229 28.9915 31.75 25.75 31.75C23.6793 31.75 21.925 31.3075 20.5 30.5312V23.5532C21.4125 23.684 22.2741 24.0537 22.9975 24.625ZM19.75 30.25C19.75 30.4489 19.671 30.6397 19.5303 30.7803C19.3897 30.921 19.1989 31 19 31H17.5C17.3011 31 17.1103 30.921 16.9697 30.7803C16.829 30.6397 16.75 30.4489 16.75 30.25V23.5C16.75 23.3011 16.829 23.1103 16.9697 22.9697C17.1103 22.829 17.3011 22.75 17.5 22.75H19C19.1989 22.75 19.3897 22.829 19.5303 22.9697C19.671 23.1103 19.75 23.3011 19.75 23.5V30.25ZM29.5 19.75C30.0967 19.75 30.669 19.9871 31.091 20.409C31.5129 20.831 31.75 21.4033 31.75 22C31.75 22.5967 31.5129 23.169 31.091 23.591C30.669 24.0129 30.0967 24.25 29.5 24.25C28.9033 24.25 28.331 24.0129 27.909 23.591C27.4871 23.169 27.25 22.5967 27.25 22C27.25 21.4033 27.4871 20.831 27.909 20.409C28.331 19.9871 28.9033 19.75 29.5 19.75ZM24.25 17.5C24.8467 17.5 25.419 17.7371 25.841 18.159C26.2629 18.581 26.5 19.1533 26.5 19.75C26.5 20.3467 26.2629 20.919 25.841 21.341C25.419 21.7629 24.8467 22 24.25 22C23.6533 22 23.081 21.7629 22.659 21.341C22.2371 20.919 22 20.3467 22 19.75C22 19.1533 22.2371 18.581 22.659 18.159C23.081 17.7371 23.6533 17.5 24.25 17.5Z" fill="#455A64"/>
</svg>
