<svg width="50" height="50" viewBox="0 0 50 50" fill="none" xmlns="http://www.w3.org/2000/svg">
<path d="M0 25C0 20.3534 0 18.0302 0.384294 16.0982C1.96243 8.16438 8.16438 1.96243 16.0982 0.384294C18.0302 0 20.3534 0 25 0C29.6466 0 31.9698 0 33.9018 0.384294C41.8356 1.96243 48.0376 8.16438 49.6157 16.0982C50 18.0302 50 20.3534 50 25C50 29.6466 50 31.9698 49.6157 33.9018C48.0376 41.8356 41.8356 48.0376 33.9018 49.6157C31.9698 50 29.6466 50 25 50C20.3534 50 18.0302 50 16.0982 49.6157C8.16438 48.0376 1.96243 41.8356 0.384294 33.9018C0 31.9698 0 29.6466 0 25Z" fill="#45C079"/>
<path d="M10 25C10 22.2121 10 20.8181 10.2306 19.6589C11.1775 14.8986 14.8986 11.1775 19.6589 10.2306C20.8181 10 22.2121 10 25 10C27.7879 10 29.1819 10 30.3411 10.2306C35.1014 11.1775 38.8225 14.8986 39.7694 19.6589C40 20.8181 40 22.2121 40 25C40 27.7879 40 29.1819 39.7694 30.3411C38.8225 35.1014 35.1014 38.8225 30.3411 39.7694C29.1819 40 27.7879 40 25 40C22.2121 40 20.8181 40 19.6589 39.7694C14.8986 38.8225 11.1775 35.1014 10.2306 30.3411C10 29.1819 10 27.7879 10 25Z" fill="white"/>
<path d="M21 26H29V24H21V26ZM21 22H29V20H21V22ZM32.95 34.475L28.9 29.2C28.6167 28.8167 28.2667 28.521 27.85 28.313C27.4333 28.105 26.9833 28.0007 26.5 28H17V18C17 17.45 17.196 16.979 17.588 16.587C17.98 16.195 18.4507 15.9993 19 16H31C31.55 16 32.021 16.196 32.413 16.588C32.805 16.98 33.0007 17.4507 33 18V34C33 34.0833 32.9957 34.1627 32.987 34.238C32.9783 34.3133 32.966 34.3923 32.95 34.475ZM19 36C18.45 36 17.9793 35.804 17.588 35.412C17.1967 35.02 17.0007 34.5493 17 34V30H26.5C26.6667 30 26.821 30.0377 26.963 30.113C27.105 30.1883 27.2257 30.2923 27.325 30.425L31.525 35.925C31.4417 35.9583 31.3543 35.9793 31.263 35.988C31.1717 35.9967 31.084 36.0007 31 36H19Z" fill="#43BE76"/>
</svg>
