<svg width="42" height="42" viewBox="0 0 42 42" fill="none" xmlns="http://www.w3.org/2000/svg">
<path d="M41 21C41 32.0457 32.0457 41 21 41C9.9543 41 1 32.0457 1 21C1 9.9543 9.9543 1 21 1C32.0457 1 41 9.9543 41 21Z" fill="#D90909"/>
<path d="M25.6209 23.8559C25.3381 23.8531 25.1004 23.7478 24.9077 23.5398C24.7156 23.3314 24.6209 23.0858 24.6237 22.803L24.6635 18.808L16.7012 26.6134C16.4988 26.8118 16.2619 26.9096 15.9904 26.9069C15.7198 26.9042 15.4854 26.8017 15.287 26.5994C15.0887 26.397 14.9906 26.1604 14.9929 25.8893C14.996 25.6183 15.0988 25.3836 15.3011 25.1852L23.2634 17.3798L19.2331 17.3397C18.9503 17.3369 18.7125 17.2372 18.5197 17.0406C18.3274 16.8444 18.2327 16.6049 18.2355 16.3221C18.2383 16.0393 18.3381 15.8015 18.5347 15.6088C18.7308 15.4165 18.9703 15.3218 19.2531 15.3246L25.7228 15.3889C25.8643 15.3903 25.9908 15.418 26.1025 15.4719C26.2136 15.5263 26.3159 15.6011 26.4092 15.6963C26.5026 15.7915 26.5753 15.8952 26.6275 16.0075C26.6792 16.1202 26.7043 16.2473 26.7029 16.3887L26.6382 22.8937C26.6356 23.153 26.5362 23.3788 26.3401 23.571C26.1435 23.7638 25.9038 23.8588 25.6209 23.8559Z" fill="white"/>
<path d="M41 21C41 32.0457 32.0457 41 21 41C9.9543 41 1 32.0457 1 21C1 9.9543 9.9543 1 21 1C32.0457 1 41 9.9543 41 21ZM3 21C3 30.9411 11.0589 39 21 39C30.9411 39 39 30.9411 39 21C39 11.0589 30.9411 3 21 3C11.0589 3 3 11.0589 3 21Z" fill="white" fill-opacity="0.2"/>
<path d="M21 41.25C32.1838 41.25 41.25 32.1838 41.25 21C41.25 9.81623 32.1838 0.75 21 0.75C9.81623 0.75 0.75 9.81623 0.75 21C0.75 32.1838 9.81623 41.25 21 41.25Z" stroke="#D90909" stroke-width="0.5"/>
</svg>
